<?xml version="1.0" encoding="utf-8"?>
<!-- Generator: Adobe Illustrator 14.0.0, SVG Export Plug-In . SVG Version: 6.00 Build 43363)  -->
<!DOCTYPE svg PUBLIC "-//W3C//DTD SVG 1.1//EN" "http://www.w3.org/Graphics/SVG/1.1/DTD/svg11.dtd">
<svg version="1.1" id="Layer_1" xmlns="http://www.w3.org/2000/svg" xmlns:xlink="http://www.w3.org/1999/xlink" x="0px" y="0px"
	 width="128.071px" height="21.253px" viewBox="0 0 128.071 21.253" enable-background="new 0 0 128.071 21.253"
	 xml:space="preserve">
<g>
	<path fill="#4D61AD" d="M9.971,11.89c-0.079-0.611-0.301-1.081-0.674-1.395c-0.365-0.314-0.868-0.471-1.508-0.471
		c-0.635,0-1.144,0.156-1.527,0.471c-0.382,0.313-0.623,0.783-0.733,1.395H9.971z M12.776,13.605L12.776,13.605H5.443
		c0.111,0.702,0.365,1.229,0.769,1.573c0.395,0.353,0.937,0.524,1.62,0.524c0.514,0,0.963-0.097,1.336-0.3
		c0.375-0.197,0.692-0.498,0.942-0.903l2.289,1.14c-0.528,0.861-1.175,1.494-1.93,1.912c-0.756,0.414-1.657,0.62-2.694,0.62
		c-1.582,0-2.833-0.471-3.756-1.412c-0.922-0.939-1.382-2.209-1.382-3.804c0-1.529,0.482-2.789,1.448-3.779
		c0.963-0.987,2.199-1.482,3.707-1.482c1.554,0,2.781,0.46,3.684,1.387c0.901,0.925,1.352,2.188,1.352,3.787
		c0,0.085-0.004,0.176-0.012,0.285C12.812,13.253,12.797,13.405,12.776,13.605"/>
	<path fill="#4D61AD" d="M15.424,17.786h-3.356l3.464-4.955L12.248,8.02h3.543l0.964,1.812c0.12,0.233,0.227,0.472,0.323,0.718
		c0.101,0.243,0.188,0.506,0.265,0.776c0.072-0.254,0.164-0.503,0.269-0.754c0.107-0.246,0.234-0.498,0.387-0.761l1.037-1.792h3.363
		l-3.343,4.747l3.521,5.02h-3.521l-1.146-2.001c-0.132-0.252-0.25-0.503-0.351-0.752c-0.104-0.248-0.189-0.497-0.255-0.752
		c-0.066,0.259-0.154,0.51-0.26,0.752c-0.105,0.24-0.244,0.5-0.417,0.77L15.424,17.786z"/>
	<path fill="#4D61AD" d="M30.043,12.885c0-0.874-0.22-1.567-0.663-2.077c-0.437-0.512-1.035-0.77-1.782-0.77
		c-0.774,0-1.378,0.258-1.82,0.764c-0.44,0.508-0.661,1.2-0.661,2.083c0,0.886,0.217,1.572,0.652,2.065
		c0.435,0.489,1.036,0.734,1.807,0.734c0.783,0,1.39-0.245,1.823-0.734C29.828,14.457,30.043,13.771,30.043,12.885 M32.632,17.786
		L32.632,17.786h-2.749l0.04-1.402c-0.383,0.617-0.845,1.067-1.389,1.359c-0.541,0.285-1.201,0.43-1.973,0.43
		c-1.294,0-2.338-0.481-3.132-1.444c-0.791-0.961-1.191-2.231-1.191-3.81c0-1.646,0.392-2.931,1.168-3.848
		c0.785-0.92,1.867-1.378,3.253-1.378c0.725,0,1.359,0.16,1.907,0.487c0.546,0.323,1.008,0.808,1.377,1.452V8.02h2.689V17.786z"/>
	<path fill="#4D61AD" d="M37.157,17.786h-2.836V8.02h2.836v1.536c0.466-0.645,0.961-1.116,1.488-1.415
		c0.527-0.298,1.124-0.447,1.795-0.447c0.81,0,1.47,0.163,1.976,0.5c0.509,0.326,0.865,0.829,1.08,1.498
		c0.451-0.66,0.964-1.16,1.541-1.498c0.57-0.337,1.199-0.5,1.884-0.5c0.69,0,1.273,0.129,1.758,0.383
		c0.482,0.256,0.854,0.639,1.12,1.147c0.139,0.28,0.237,0.597,0.299,0.949c0.058,0.351,0.089,0.883,0.089,1.6v0.31v5.704h-2.838
		v-4.83c0-1.184-0.12-1.976-0.363-2.363c-0.239-0.396-0.666-0.589-1.269-0.589c-0.729,0-1.257,0.271-1.589,0.813
		c-0.328,0.543-0.491,1.436-0.491,2.667v4.302h-2.838v-4.83c0-1.146-0.112-1.924-0.339-2.323c-0.224-0.409-0.612-0.609-1.161-0.609
		c-0.752,0-1.295,0.272-1.634,0.821c-0.337,0.547-0.507,1.428-0.507,2.64V17.786z"/>
	<path fill="#4D61AD" d="M51.809,4.014c0-0.453,0.163-0.841,0.489-1.165c0.324-0.328,0.714-0.491,1.166-0.491
		c0.454,0,0.846,0.16,1.178,0.484c0.328,0.322,0.491,0.711,0.491,1.172c0,0.454-0.163,0.848-0.491,1.174
		c-0.332,0.323-0.724,0.489-1.178,0.489c-0.452,0-0.842-0.169-1.166-0.5C51.972,4.845,51.809,4.456,51.809,4.014 M52.062,17.786
		L52.062,17.786V8.02h2.825v9.767H52.062z"/>
	<path fill="#4D61AD" d="M56.83,17.786V8.02h2.771v1.536c0.514-0.638,1.06-1.11,1.649-1.413c0.589-0.3,1.24-0.449,1.955-0.449
		c0.761,0,1.395,0.129,1.905,0.383c0.516,0.256,0.924,0.647,1.222,1.167c0.145,0.274,0.252,0.58,0.313,0.924
		c0.064,0.343,0.095,0.877,0.095,1.605v0.31v5.704h-2.839v-4.83c0-1.197-0.136-1.992-0.417-2.375
		c-0.279-0.387-0.758-0.577-1.434-0.577c-0.389,0-0.752,0.08-1.077,0.243c-0.327,0.162-0.604,0.392-0.821,0.688
		c-0.175,0.235-0.298,0.5-0.372,0.801c-0.08,0.297-0.116,0.751-0.116,1.361v0.388v4.302H56.83z"/>
	<path fill="#4D61AD" d="M75.22,11.89c-0.077-0.611-0.302-1.081-0.673-1.395c-0.367-0.314-0.87-0.471-1.507-0.471
		c-0.635,0-1.146,0.156-1.527,0.471c-0.382,0.313-0.626,0.783-0.733,1.395H75.22z M78.027,13.605L78.027,13.605H70.69
		c0.115,0.702,0.369,1.229,0.771,1.573c0.396,0.353,0.937,0.524,1.62,0.524c0.517,0,0.966-0.097,1.338-0.3
		c0.374-0.197,0.69-0.498,0.943-0.903l2.288,1.14c-0.53,0.861-1.175,1.494-1.929,1.912c-0.757,0.414-1.658,0.62-2.698,0.62
		c-1.581,0-2.83-0.471-3.753-1.412c-0.921-0.939-1.387-2.209-1.387-3.804c0-1.529,0.484-2.789,1.45-3.779
		c0.966-0.987,2.201-1.482,3.71-1.482c1.551,0,2.778,0.46,3.681,1.387c0.901,0.925,1.355,2.188,1.355,3.787
		c0,0.085-0.003,0.176-0.013,0.285C78.062,13.253,78.048,13.405,78.027,13.605"/>
	<path fill="#4D61AD" d="M81.975,10.53c0.285-0.952,0.693-1.658,1.227-2.131c0.537-0.474,1.194-0.706,1.986-0.706
		c0.177,0,0.472,0.031,0.883,0.099c0.083,0.01,0.14,0.021,0.18,0.031l-0.428,3.047c-0.209-0.093-0.423-0.154-0.642-0.2
		c-0.214-0.043-0.439-0.063-0.681-0.063c-0.862,0-1.481,0.224-1.86,0.663c-0.377,0.44-0.564,1.178-0.564,2.215v4.303h-2.839V8.02
		h2.796L81.975,10.53z"/>
	<path fill="#F58023" d="M84.567,16.383c0-0.479,0.168-0.887,0.504-1.227c0.334-0.339,0.736-0.508,1.209-0.508
		c0.472,0,0.871,0.169,1.209,0.508c0.337,0.34,0.503,0.747,0.503,1.227c0,0.472-0.166,0.868-0.5,1.197
		c-0.329,0.331-0.732,0.494-1.212,0.494c-0.473,0-0.875-0.166-1.209-0.5C84.735,17.245,84.567,16.85,84.567,16.383"/>
	<path fill="#D6D6D6" d="M97.826,9.727c-0.457-0.317-0.942-0.559-1.46-0.715c-0.515-0.156-1.044-0.236-1.593-0.236
		c-1.215,0-2.183,0.389-2.902,1.166c-0.722,0.776-1.087,1.813-1.087,3.111c0,1.152,0.374,2.096,1.123,2.838
		c0.749,0.746,1.706,1.12,2.866,1.12c0.532,0,1.07-0.091,1.61-0.275c0.543-0.188,1.075-0.458,1.597-0.832v1.492
		c-0.477,0.273-1.011,0.479-1.591,0.613c-0.584,0.135-1.204,0.206-1.867,0.206c-1.495,0-2.721-0.492-3.678-1.475
		c-0.958-0.986-1.438-2.243-1.438-3.776c0-1.597,0.497-2.895,1.495-3.895c0.997-1,2.301-1.498,3.896-1.498
		c0.591,0,1.145,0.057,1.663,0.169c0.52,0.117,0.979,0.28,1.387,0.494L97.826,9.727z"/>
	<path fill="#D6D6D6" d="M104.046,16.897c1.07,0,1.982-0.389,2.734-1.166c0.745-0.778,1.117-1.729,1.117-2.856
		c0-1.143-0.372-2.098-1.114-2.872c-0.742-0.771-1.654-1.159-2.737-1.159c-1.078,0-1.986,0.388-2.73,1.159
		c-0.743,0.774-1.118,1.729-1.118,2.872c0,1.127,0.375,2.078,1.118,2.856C102.06,16.509,102.968,16.897,104.046,16.897
		 M103.997,18.169L103.997,18.169c-0.693,0-1.368-0.144-2.01-0.414c-0.639-0.276-1.222-0.672-1.746-1.189
		c-0.494-0.489-0.865-1.045-1.123-1.68c-0.263-0.633-0.392-1.312-0.392-2.032c0-0.715,0.132-1.393,0.398-2.036
		c0.269-0.639,0.645-1.206,1.141-1.7c0.5-0.5,1.071-0.884,1.711-1.148c0.64-0.267,1.318-0.398,2.021-0.398
		c0.727,0,1.415,0.132,2.066,0.398c0.646,0.265,1.229,0.648,1.738,1.148c0.508,0.503,0.899,1.072,1.167,1.712
		c0.265,0.644,0.401,1.318,0.401,2.024c0,0.709-0.131,1.378-0.394,2.017c-0.27,0.639-0.649,1.201-1.152,1.695
		c-0.517,0.518-1.105,0.913-1.761,1.189C105.403,18.025,104.714,18.169,103.997,18.169"/>
	<path fill="#D6D6D6" d="M112.559,17.737h-1.356V7.934h1.356v1.535c0.323-0.614,0.753-1.085,1.284-1.412
		c0.528-0.323,1.141-0.486,1.832-0.486c0.717,0,1.326,0.163,1.829,0.489c0.506,0.328,0.896,0.81,1.166,1.444
		c0.396-0.647,0.871-1.135,1.438-1.455c0.565-0.318,1.226-0.479,1.977-0.479c1.041,0,1.862,0.312,2.455,0.943
		c0.598,0.629,0.896,1.495,0.896,2.593v6.631h-1.358v-6.088c0-0.958-0.198-1.683-0.595-2.17c-0.392-0.487-0.98-0.73-1.761-0.73
		c-0.935,0-1.62,0.308-2.063,0.921c-0.438,0.611-0.658,1.58-0.658,2.909v5.158h-1.342v-6.088c0-1.006-0.192-1.737-0.567-2.2
		c-0.374-0.464-0.957-0.7-1.746-0.7c-0.957,0-1.663,0.313-2.111,0.931c-0.448,0.619-0.676,1.584-0.676,2.899V17.737z"/>
</g>
</svg>
